# xmcd
#
# Track frame offsets: 
#        183
#        13433
#        26448
#        40180
#        49618
#        61308
#        74310
#        86918
#        98465
#        113163
#        124128
#        136378
#        149095
#        160653
#        173318
#        185605
#        198345
#        209710
#        222423
#        232588
#        245278
#
# Disc length: 3414 seconds
#
# Revision: 1
# Processed by: cddbd v1.5.2PL0 Copyright (c) Steve Scherf et al.
# Submitted via: ExactAudioCopy v0.99pb5
#
DISCID=290d5415
DTITLE=Various Artist - Doo Wop Dreams: 21 vocal group gems
DYEAR=1900
DGENRE=Doo wop
TTITLE0=The Dells - Stay in my corner
TTITLE1=The Dells - Oh what a nite
TTITLE2=The Hollywood Flames - There is something on your mind
TTITLE3=The Hollywood Flames - Give me back my heart
TTITLE4=The El Dorados - At my front door
TTITLE5=The El Dorados - Bim bam boom
TTITLE6=The Sheppards - Glitter in your eyes
TTITLE7=The Sheppards - Come to me
TTITLE8=The Flamingos - Golden teardrops
TTITLE9=The Flamingos - Blues in the letter
TTITLE10=The Moonglows - 219 train
TTITLE11=The Moonglows - Secret love
TTITLE12=The Impressions - Come back my love
TTITLE13=The Spaniels - You gave me peace of mind
TTITLE14=The Spaniels - Goodnight sweatheart, goodnight
TTITLE15=The Prisonaires - Just walking in the rain
TTITLE16=The Prisonaires - Don't say tomorrow
TTITLE17=The Magnificents - Up the mountain
TTITLE18=The Magnificents - Caddy Bo
TTITLE19=The Orioles - For all we know
TTITLE20=The Orioles - Live it up
EXTD=
EXTT0=
EXTT1=
EXTT2=
EXTT3=
EXTT4=
EXTT5=
EXTT6=
EXTT7=
EXTT8=
EXTT9=
EXTT10=
EXTT11=
EXTT12=
EXTT13=
EXTT14=
EXTT15=
EXTT16=
EXTT17=
EXTT18=
EXTT19=
EXTT20=
PLAYORDER=
